# xmcd CD database file
#
# Track frame offsets:
#	150
#	15745
#	29440
#	50047
#	79667
#	99410
#	124685
#	145600
#	178390
#	195925
#	223665
#	247202
#	263162
#	284657
#	302497
#
# Disc length: 4338 seconds
#
# Revision: 3
# Processed by: cddbd v1.5.1PL0 Copyright (c) Steve Scherf et al.
# Submitted via: CDex 1.51
#
DISCID=da10f00f
DTITLE=Various Artist - Bay Area Blues
DYEAR=1996
DGENRE=Blues
TTITLE0=Kent Earl Housman - Margaritha Drive
TTITLE1=Sy Klopps Blues Band - Steppin' Stone
TTITLE2=Steve Gannon - Too Through With You
TTITLE3=Ron Thompson - Pin Eyed Woman
TTITLE4=Jeff Jolly - Long Distance Love
TTITLE5=Zero - Devils's Dick Blues
TTITLE6=Lisa Kindred and Chris Goddard - Train
TTITLE7=Jerry Miller Band - Now I See
TTITLE8=Wendy Dewitt and Blue Saloon - Gypsy Good Time
TTITLE9=Chriss Cobb Band - Bad Brain
TTITLE10=David Denny - Without You
TTITLE11=Vipers - Mailbox Blues
TTITLE12=Michael Quinn - The Hard Way
TTITLE13=Annie Sampson - Big Fish
TTITLE14=Bobbie Webb - I'll Play The Blues For You
EXTD=YEAR: 1996
EXTT0=
EXTT1=
EXTT2=
EXTT3=
EXTT4=
EXTT5=
EXTT6=
EXTT7=
EXTT8=
EXTT9=
EXTT10=
EXTT11=
EXTT12=
EXTT13=
EXTT14=
PLAYORDER=
